<svg width="40" height="40" viewBox="0 0 40 40" fill="none" xmlns="http://www.w3.org/2000/svg">
<rect width="40" height="40" rx="20" fill="white"/>
<path d="M30 24.19C30 27.83 27.83 30 24.19 30H23C22.45 30 22 29.55 22 29V23.23C22 22.96 22.22 22.73 22.49 22.73L24.25 22.7C24.39 22.69 24.51 22.59 24.54 22.45L24.89 20.54C24.92 20.36 24.78 20.19 24.59 20.19L22.46 20.22C22.18 20.22 21.96 20 21.95 19.73L21.91 17.28C21.91 17.12 22.04 16.98 22.21 16.98L24.61 16.94C24.78 16.94 24.91 16.81 24.91 16.64L24.87 14.24C24.87 14.07 24.74 13.94 24.57 13.94L21.87 13.98C20.21 14.01 18.89 15.37 18.92 17.03L18.97 19.78C18.98 20.06 18.76 20.28 18.48 20.29L17.28 20.31C17.11 20.31 16.98 20.44 16.98 20.61L17.01 22.51C17.01 22.68 17.14 22.81 17.31 22.81L18.51 22.79C18.79 22.79 19.01 23.01 19.02 23.28L19.11 28.98C19.12 29.54 18.67 30 18.11 30H15.81C12.17 30 10 27.83 10 24.18V15.81C10 12.17 12.17 10 15.81 10H24.19C27.83 10 30 12.17 30 15.81V24.19Z" fill="#0C1523"/>
</svg>
