<svg width="178" height="40" viewBox="0 0 178 40" fill="none" xmlns="http://www.w3.org/2000/svg">
<g clip-path="url(#clip0_41_21246)">
<path d="M29.9814 14.0137C30.6328 14.0137 31.2437 14.3313 31.6182 14.8643L37.4863 23.2168C37.9731 23.91 37.9704 24.835 37.4795 25.5254L33.8203 30.6709L28.584 38.1475C28.2097 38.6817 27.5986 39 26.9463 39H8.91992C7.32111 38.9999 6.36878 37.2166 7.25781 35.8877L10.1543 31.5586C10.5255 31.0039 11.149 30.6709 11.8164 30.6709H19.8672C20.5173 30.6709 21.1273 30.3546 21.502 29.8232L24.5742 25.4668C25.0594 24.7787 25.0618 23.8604 24.5801 23.1699L20.3857 17.1582C19.4607 15.8324 20.4088 14.0138 22.0254 14.0137H29.9814ZM28.9297 1C30.5284 1.0002 31.4808 2.78349 30.5918 4.1123L27.6953 8.44141C27.3241 8.99611 26.7007 9.3291 26.0332 9.3291H17.9834C17.3333 9.3291 16.7233 9.64553 16.3486 10.1768L13.2754 14.5332C12.7902 15.2213 12.7878 16.1395 13.2695 16.8301L17.4648 22.8418C18.39 24.1676 17.4409 25.9863 15.8242 25.9863H7.86816C7.21676 25.9863 6.60592 25.6687 6.23145 25.1357L0.363281 16.7842C-0.123862 16.0908 -0.121035 15.1651 0.370117 14.4746L4.0293 9.3291L9.26465 1.85254C9.63893 1.31809 10.2508 1 10.9033 1H28.9297Z" fill="white"/>
<path d="M60.3456 5.12C63.1403 5.12 65.3483 5.67467 66.9696 6.784C68.6123 7.89333 69.5616 9.472 69.8176 11.52L64.6016 12.096C64.4523 11.2427 64.0469 10.5813 63.3856 10.112C62.7243 9.62133 61.7323 9.376 60.4096 9.376C59.2363 9.376 58.3403 9.58933 57.7216 10.016C57.1243 10.4427 56.8256 10.9867 56.8256 11.648C56.8256 12.096 56.9643 12.48 57.2416 12.8C57.5189 13.0987 57.9136 13.3547 58.4256 13.568C58.9376 13.7813 59.5456 13.9733 60.2496 14.144C60.9536 14.3147 61.7323 14.496 62.5856 14.688C63.5456 14.9013 64.4843 15.1573 65.4016 15.456C66.3403 15.7333 67.1829 16.128 67.9296 16.64C68.6763 17.1307 69.2736 17.7707 69.7216 18.56C70.1909 19.3493 70.4256 20.3733 70.4256 21.632C70.4256 23.7867 69.6363 25.472 68.0576 26.688C66.5003 27.8827 64.2069 28.48 61.1776 28.48C58.1909 28.48 55.7909 27.8187 53.9776 26.496C52.1856 25.1733 51.1829 23.2747 50.9696 20.8L56.1536 20.224C56.2603 21.504 56.7083 22.4853 57.4976 23.168C58.2869 23.8507 59.4709 24.192 61.0496 24.192C62.4149 24.192 63.4389 23.9467 64.1216 23.456C64.8256 22.9653 65.1776 22.3147 65.1776 21.504C65.1776 20.928 65.0389 20.4587 64.7616 20.096C64.4843 19.7333 64.0896 19.4347 63.5776 19.2C63.0656 18.9653 62.4576 18.7733 61.7536 18.624C61.0496 18.4747 60.2709 18.304 59.4176 18.112C58.4789 17.8987 57.5403 17.6533 56.6016 17.376C55.6629 17.0987 54.8203 16.7253 54.0736 16.256C53.3269 15.7653 52.7189 15.1573 52.2496 14.432C51.7803 13.6853 51.5456 12.7467 51.5456 11.616C51.5456 10.656 51.7376 9.78133 52.1216 8.992C52.5269 8.20267 53.1029 7.52 53.8496 6.944C54.6176 6.368 55.5456 5.92 56.6336 5.6C57.7216 5.28 58.9589 5.12 60.3456 5.12ZM78.2579 4L78.0979 19.744C78.0765 21.152 78.0765 22.528 78.0979 23.872C78.1405 25.216 78.2792 26.592 78.5139 28H73.5539C73.3405 26.6987 73.2125 25.408 73.1699 24.128C73.1272 22.848 73.1165 21.5253 73.1379 20.16L73.2979 4H78.2579ZM81.0634 6.56C81.0634 5.728 81.33 5.088 81.8634 4.64C82.418 4.192 83.154 3.968 84.0714 3.968C85.01 3.968 85.746 4.192 86.2794 4.64C86.834 5.088 87.1114 5.728 87.1114 6.56C87.1114 7.37067 86.834 8.01067 86.2794 8.48C85.746 8.928 85.01 9.152 84.0714 9.152C83.154 9.152 82.418 8.928 81.8634 8.48C81.33 8.01067 81.0634 7.37067 81.0634 6.56ZM86.5994 28H81.5434V10.4H86.5994V28ZM96.3846 9.92C97.4939 9.92 98.4326 10.1333 99.2006 10.56C99.9899 10.9653 100.641 11.52 101.153 12.224C101.686 12.9067 102.091 13.696 102.369 14.592C102.667 15.4667 102.891 16.384 103.041 17.344L103.873 17.12C103.467 16.1387 103.105 15.072 102.785 13.92C102.465 12.7467 102.294 11.5733 102.273 10.4H107.393V33.76H102.305V28C102.305 26.8267 102.465 25.664 102.785 24.512C103.105 23.3387 103.467 22.2507 103.873 21.248L103.041 21.056C102.891 22.016 102.667 22.944 102.369 23.84C102.091 24.7147 101.686 25.504 101.153 26.208C100.641 26.8907 99.9899 27.4453 99.2006 27.872C98.4326 28.2773 97.4939 28.48 96.3846 28.48C95.3393 28.48 94.3686 28.2773 93.4726 27.872C92.5766 27.4453 91.8086 26.8373 91.1686 26.048C90.5286 25.2587 90.0273 24.288 89.6646 23.136C89.3019 21.984 89.1206 20.672 89.1206 19.2C89.1206 17.728 89.3019 16.416 89.6646 15.264C90.0273 14.112 90.5286 13.1413 91.1686 12.352C91.8086 11.5627 92.5766 10.9653 93.4726 10.56C94.3686 10.1333 95.3393 9.92 96.3846 9.92ZM102.433 19.2C102.433 17.5147 102.059 16.2133 101.313 15.296C100.566 14.3787 99.5633 13.92 98.3046 13.92C97.0459 13.92 96.0433 14.3787 95.2966 15.296C94.5499 16.2133 94.1766 17.5147 94.1766 19.2C94.1766 20.9067 94.5499 22.2187 95.2966 23.136C96.0433 24.032 97.0459 24.48 98.3046 24.48C99.5633 24.48 100.566 24.032 101.313 23.136C102.059 22.2187 102.433 20.9067 102.433 19.2ZM130.208 9.92C131.254 9.92 132.214 10.1333 133.088 10.56C133.984 10.9653 134.752 11.5627 135.392 12.352C136.054 13.1413 136.566 14.112 136.928 15.264C137.291 16.416 137.472 17.728 137.472 19.2C137.472 20.672 137.291 21.984 136.928 23.136C136.566 24.288 136.054 25.2587 135.392 26.048C134.752 26.8373 133.984 27.4453 133.088 27.872C132.214 28.2773 131.254 28.48 130.208 28.48C129.099 28.48 128.15 28.2773 127.36 27.872C126.571 27.4453 125.92 26.8907 125.408 26.208C124.896 25.504 124.491 24.7147 124.192 23.84C123.894 22.944 123.68 22.016 123.552 21.056L122.688 21.248C123.094 22.2507 123.456 23.3387 123.776 24.512C124.096 25.664 124.256 26.8267 124.256 28V33.76H119.168V10.4H124.288C124.267 11.5733 124.096 12.7467 123.776 13.92C123.456 15.0933 123.094 16.1707 122.688 17.152L123.552 17.344C123.68 16.384 123.894 15.4667 124.192 14.592C124.491 13.696 124.896 12.9067 125.408 12.224C125.92 11.52 126.571 10.9653 127.36 10.56C128.15 10.1333 129.099 9.92 130.208 9.92ZM124.128 19.2C124.128 20.9067 124.502 22.2187 125.248 23.136C125.995 24.032 126.998 24.48 128.256 24.48C129.515 24.48 130.518 24.032 131.264 23.136C132.011 22.2187 132.384 20.9067 132.384 19.2C132.384 17.5147 132.011 16.2133 131.264 15.296C130.518 14.3787 129.515 13.92 128.256 13.92C126.998 13.92 125.995 14.3787 125.248 15.296C124.502 16.2133 124.128 17.5147 124.128 19.2ZM147.822 9.92C150.232 9.92 152.067 10.4427 153.326 11.488C154.584 12.5333 155.214 14.0907 155.214 16.16V20.32C155.214 21.3867 155.214 22.2933 155.214 23.04C155.235 23.7867 155.267 24.448 155.31 25.024C155.352 25.6 155.406 26.1227 155.47 26.592C155.555 27.04 155.651 27.5093 155.758 28H151.182C151.139 27.808 151.096 27.552 151.054 27.232C151.032 26.912 151.022 26.6027 151.022 26.304C151.022 25.4507 151.107 24.64 151.278 23.872C151.448 23.104 151.662 22.368 151.918 21.664L151.022 21.504C151 22.5493 150.894 23.5093 150.702 24.384C150.51 25.2373 150.179 25.9733 149.71 26.592C149.262 27.1893 148.654 27.6587 147.886 28C147.118 28.32 146.136 28.48 144.942 28.48C143.171 28.48 141.763 28.0427 140.718 27.168C139.672 26.2933 139.15 25.1413 139.15 23.712C139.15 22.8373 139.288 22.08 139.566 21.44C139.843 20.8 140.28 20.256 140.878 19.808C141.475 19.3387 142.222 18.9547 143.118 18.656C144.035 18.336 145.123 18.0693 146.382 17.856L150.606 17.12V16.512C150.606 15.6373 150.371 14.976 149.902 14.528C149.454 14.0587 148.739 13.824 147.758 13.824C146.734 13.824 145.966 14.048 145.454 14.496C144.942 14.944 144.611 15.5413 144.462 16.288L139.918 15.68C140.344 13.8667 141.198 12.4587 142.478 11.456C143.779 10.432 145.56 9.92 147.822 9.92ZM147.054 20.736C146.008 20.9067 145.251 21.1627 144.782 21.504C144.334 21.8453 144.11 22.3147 144.11 22.912C144.11 23.4027 144.291 23.808 144.654 24.128C145.038 24.4267 145.624 24.576 146.414 24.576C147.736 24.576 148.718 24.256 149.358 23.616C150.019 22.9547 150.435 21.9733 150.606 20.672V20.128L147.054 20.736ZM164.873 27.52C163.913 27.52 163.049 27.3387 162.281 26.976C161.513 26.6133 160.863 26.112 160.329 25.472C159.796 24.832 159.38 24.0747 159.081 23.2C158.804 22.304 158.665 21.3333 158.665 20.288V10.4H163.753V19.68C163.753 21.088 164.02 22.0693 164.553 22.624C165.108 23.1787 165.887 23.456 166.889 23.456C167.38 23.456 167.817 23.392 168.201 23.264C168.607 23.136 168.948 22.912 169.225 22.592C169.524 22.2507 169.759 21.8027 169.929 21.248C170.1 20.672 170.196 19.9467 170.217 19.072V10.4H175.305V26.656C175.305 27.68 175.156 28.6507 174.857 29.568C174.58 30.4853 174.1 31.2853 173.417 31.968C172.756 32.672 171.86 33.2267 170.729 33.632C169.599 34.0373 168.201 34.24 166.537 34.24C163.807 34.24 161.759 33.728 160.393 32.704C159.028 31.7013 158.185 30.336 157.865 28.608L162.761 28.032C162.932 28.8853 163.305 29.5147 163.881 29.92C164.457 30.3253 165.353 30.528 166.569 30.528C167.828 30.528 168.745 30.2293 169.321 29.632C169.919 29.0347 170.217 28.096 170.217 26.816C170.217 25.728 170.388 24.6293 170.729 23.52C171.092 22.4107 171.476 21.4293 171.881 20.576L171.017 20.352C170.889 21.248 170.697 22.1227 170.441 22.976C170.185 23.8293 169.823 24.5973 169.353 25.28C168.905 25.9413 168.319 26.4853 167.593 26.912C166.868 27.3173 165.961 27.52 164.873 27.52Z" fill="white"/>
</g>
<defs>
<clipPath id="clip0_41_21246">
<rect width="177.85" height="40" fill="white"/>
</clipPath>
</defs>
</svg>
