<svg width="174" height="52" viewBox="0 0 174 52" fill="none" xmlns="http://www.w3.org/2000/svg">
<path d="M174 40L162 52H0V12L12 0H174V40Z" fill="url(#paint0_linear_41_17464)"/>
<path d="M17.2525 31.626C16.9165 31.638 16.6525 31.548 16.4605 31.356C16.2685 31.164 16.1725 30.918 16.1725 30.618C16.1725 30.39 16.2445 30.192 16.3885 30.024C16.5205 29.844 16.7185 29.748 16.9825 29.736L17.5225 29.7C18.0505 29.664 18.4465 29.502 18.7105 29.214C18.9865 28.914 19.1245 28.488 19.1245 27.936V19.836C19.1245 19.452 19.2205 19.164 19.4125 18.972C19.6165 18.768 19.9045 18.666 20.2765 18.666C20.6485 18.666 20.9305 18.768 21.1225 18.972C21.3265 19.164 21.4285 19.452 21.4285 19.836V27.918C21.4285 28.674 21.2905 29.316 21.0145 29.844C20.7505 30.372 20.3545 30.786 19.8265 31.086C19.2985 31.374 18.6445 31.542 17.8645 31.59L17.2525 31.626ZM28.0618 31.68C27.1498 31.68 26.3578 31.494 25.6858 31.122C25.0138 30.75 24.4918 30.222 24.1198 29.538C23.7478 28.842 23.5618 28.026 23.5618 27.09C23.5618 26.382 23.6638 25.752 23.8678 25.2C24.0838 24.636 24.3898 24.156 24.7858 23.76C25.1818 23.352 25.6558 23.046 26.2078 22.842C26.7598 22.626 27.3778 22.518 28.0618 22.518C28.9738 22.518 29.7658 22.704 30.4378 23.076C31.1098 23.448 31.6318 23.976 32.0038 24.66C32.3758 25.344 32.5618 26.154 32.5618 27.09C32.5618 27.798 32.4538 28.434 32.2378 28.998C32.0338 29.562 31.7338 30.048 31.3378 30.456C30.9418 30.852 30.4678 31.158 29.9158 31.374C29.3638 31.578 28.7458 31.68 28.0618 31.68ZM28.0618 29.97C28.5058 29.97 28.8958 29.862 29.2318 29.646C29.5678 29.43 29.8258 29.112 30.0058 28.692C30.1978 28.26 30.2938 27.726 30.2938 27.09C30.2938 26.13 30.0898 25.416 29.6818 24.948C29.2738 24.468 28.7338 24.228 28.0618 24.228C27.6178 24.228 27.2278 24.336 26.8918 24.552C26.5558 24.756 26.2918 25.074 26.0998 25.506C25.9198 25.926 25.8298 26.454 25.8298 27.09C25.8298 28.038 26.0338 28.758 26.4418 29.25C26.8498 29.73 27.3898 29.97 28.0618 29.97ZM35.6249 31.626C35.2649 31.626 34.9889 31.518 34.7969 31.302C34.6049 31.086 34.5089 30.786 34.5089 30.402V23.796C34.5089 23.4 34.6049 23.1 34.7969 22.896C34.9889 22.68 35.2649 22.572 35.6249 22.572C35.9849 22.572 36.2609 22.68 36.4529 22.896C36.6569 23.1 36.7589 23.4 36.7589 23.796V30.402C36.7589 30.786 36.6629 31.086 36.4709 31.302C36.2789 31.518 35.9969 31.626 35.6249 31.626ZM35.6249 20.898C35.2049 20.898 34.8749 20.796 34.6349 20.592C34.4069 20.376 34.2929 20.082 34.2929 19.71C34.2929 19.326 34.4069 19.032 34.6349 18.828C34.8749 18.624 35.2049 18.522 35.6249 18.522C36.0569 18.522 36.3869 18.624 36.6149 18.828C36.8429 19.032 36.9569 19.326 36.9569 19.71C36.9569 20.082 36.8429 20.376 36.6149 20.592C36.3869 20.796 36.0569 20.898 35.6249 20.898ZM40.3028 31.644C39.9428 31.644 39.6668 31.548 39.4748 31.356C39.2828 31.152 39.1868 30.864 39.1868 30.492V23.688C39.1868 23.316 39.2828 23.034 39.4748 22.842C39.6668 22.65 39.9368 22.554 40.2848 22.554C40.6328 22.554 40.9028 22.65 41.0948 22.842C41.2868 23.034 41.3828 23.316 41.3828 23.688V24.912L41.1848 24.462C41.4488 23.826 41.8568 23.346 42.4088 23.022C42.9728 22.686 43.6088 22.518 44.3168 22.518C45.0248 22.518 45.6068 22.65 46.0628 22.914C46.5188 23.178 46.8608 23.58 47.0888 24.12C47.3168 24.648 47.4308 25.32 47.4308 26.136V30.492C47.4308 30.864 47.3348 31.152 47.1428 31.356C46.9508 31.548 46.6748 31.644 46.3148 31.644C45.9548 31.644 45.6728 31.548 45.4688 31.356C45.2768 31.152 45.1808 30.864 45.1808 30.492V26.244C45.1808 25.56 45.0488 25.062 44.7848 24.75C44.5328 24.438 44.1368 24.282 43.5968 24.282C42.9368 24.282 42.4088 24.492 42.0128 24.912C41.6288 25.32 41.4368 25.866 41.4368 26.55V30.492C41.4368 31.26 41.0588 31.644 40.3028 31.644ZM60.6868 31.68C59.4628 31.68 58.3888 31.41 57.4648 30.87C56.5528 30.33 55.8448 29.574 55.3408 28.602C54.8368 27.618 54.5848 26.466 54.5848 25.146C54.5848 24.15 54.7288 23.256 55.0168 22.464C55.3048 21.66 55.7128 20.976 56.2408 20.412C56.7808 19.836 57.4228 19.398 58.1668 19.098C58.9228 18.786 59.7628 18.63 60.6868 18.63C61.9228 18.63 62.9968 18.9 63.9088 19.44C64.8208 19.968 65.5288 20.718 66.0328 21.69C66.5368 22.662 66.7888 23.808 66.7888 25.128C66.7888 26.124 66.6448 27.024 66.3568 27.828C66.0688 28.632 65.6548 29.322 65.1148 29.898C64.5868 30.474 63.9448 30.918 63.1888 31.23C62.4448 31.53 61.6108 31.68 60.6868 31.68ZM60.6868 29.7C61.4668 29.7 62.1268 29.52 62.6668 29.16C63.2188 28.8 63.6388 28.278 63.9268 27.594C64.2268 26.91 64.3768 26.094 64.3768 25.146C64.3768 23.706 64.0528 22.59 63.4048 21.798C62.7688 21.006 61.8628 20.61 60.6868 20.61C59.9188 20.61 59.2588 20.79 58.7068 21.15C58.1548 21.498 57.7288 22.014 57.4288 22.698C57.1408 23.37 56.9968 24.186 56.9968 25.146C56.9968 26.574 57.3208 27.69 57.9688 28.494C58.6168 29.298 59.5228 29.7 60.6868 29.7ZM72.1916 31.68C71.4596 31.68 70.8536 31.548 70.3736 31.284C69.8936 31.008 69.5336 30.6 69.2936 30.06C69.0656 29.52 68.9516 28.848 68.9516 28.044V23.688C68.9516 23.304 69.0476 23.022 69.2396 22.842C69.4316 22.65 69.7076 22.554 70.0676 22.554C70.4276 22.554 70.7036 22.65 70.8956 22.842C71.0996 23.022 71.2016 23.304 71.2016 23.688V28.08C71.2016 28.704 71.3276 29.166 71.5796 29.466C71.8316 29.766 72.2336 29.916 72.7856 29.916C73.3856 29.916 73.8776 29.712 74.2616 29.304C74.6456 28.884 74.8376 28.332 74.8376 27.648V23.688C74.8376 23.304 74.9336 23.022 75.1256 22.842C75.3176 22.65 75.5936 22.554 75.9536 22.554C76.3136 22.554 76.5896 22.65 76.7816 22.842C76.9856 23.022 77.0876 23.304 77.0876 23.688V30.492C77.0876 31.26 76.7216 31.644 75.9896 31.644C75.6416 31.644 75.3716 31.548 75.1796 31.356C74.9876 31.152 74.8916 30.864 74.8916 30.492V29.124L75.1436 29.664C74.8916 30.312 74.5076 30.81 73.9916 31.158C73.4876 31.506 72.8876 31.68 72.1916 31.68ZM80.6715 31.644C80.2995 31.644 80.0115 31.548 79.8075 31.356C79.6155 31.152 79.5195 30.864 79.5195 30.492V23.688C79.5195 23.316 79.6155 23.034 79.8075 22.842C79.9995 22.65 80.2695 22.554 80.6175 22.554C80.9655 22.554 81.2355 22.65 81.4275 22.842C81.6195 23.034 81.7155 23.316 81.7155 23.688V24.822H81.5355C81.7035 24.102 82.0335 23.556 82.5255 23.184C83.0175 22.812 83.6715 22.59 84.4875 22.518C84.7395 22.494 84.9375 22.56 85.0815 22.716C85.2375 22.86 85.3275 23.088 85.3515 23.4C85.3755 23.7 85.3035 23.946 85.1355 24.138C84.9795 24.318 84.7395 24.426 84.4155 24.462L84.0195 24.498C83.2875 24.57 82.7355 24.798 82.3635 25.182C81.9915 25.554 81.8055 26.082 81.8055 26.766V30.492C81.8055 30.864 81.7095 31.152 81.5175 31.356C81.3255 31.548 81.0435 31.644 80.6715 31.644ZM96.315 31.644C95.991 31.644 95.727 31.566 95.523 31.41C95.331 31.254 95.175 31.008 95.055 30.672L91.293 20.034C91.161 19.65 91.185 19.326 91.365 19.062C91.557 18.798 91.875 18.666 92.319 18.666C92.643 18.666 92.895 18.744 93.075 18.9C93.255 19.044 93.399 19.278 93.507 19.602L96.747 29.214H96.027L99.411 19.62C99.531 19.296 99.681 19.056 99.861 18.9C100.041 18.744 100.275 18.666 100.563 18.666C100.851 18.666 101.079 18.744 101.247 18.9C101.415 19.056 101.559 19.302 101.679 19.638L104.955 29.214H104.325L107.619 19.602C107.727 19.29 107.871 19.056 108.051 18.9C108.231 18.744 108.477 18.666 108.789 18.666C109.173 18.666 109.455 18.798 109.635 19.062C109.815 19.326 109.839 19.65 109.707 20.034L105.909 30.69C105.789 31.014 105.633 31.254 105.441 31.41C105.249 31.566 104.991 31.644 104.667 31.644C104.343 31.644 104.085 31.566 103.893 31.41C103.701 31.254 103.545 31.008 103.425 30.672L100.293 21.744H100.707L97.539 30.69C97.419 31.014 97.263 31.254 97.071 31.41C96.891 31.566 96.639 31.644 96.315 31.644ZM113.59 31.68C112.954 31.68 112.384 31.56 111.88 31.32C111.388 31.068 110.998 30.732 110.71 30.312C110.434 29.892 110.296 29.418 110.296 28.89C110.296 28.242 110.464 27.732 110.8 27.36C111.136 26.976 111.682 26.7 112.438 26.532C113.194 26.364 114.208 26.28 115.48 26.28H116.38V27.576H115.498C114.754 27.576 114.16 27.612 113.716 27.684C113.272 27.756 112.954 27.882 112.762 28.062C112.582 28.23 112.492 28.47 112.492 28.782C112.492 29.178 112.63 29.502 112.906 29.754C113.182 30.006 113.566 30.132 114.058 30.132C114.454 30.132 114.802 30.042 115.102 29.862C115.414 29.67 115.66 29.412 115.84 29.088C116.02 28.764 116.11 28.392 116.11 27.972V25.902C116.11 25.302 115.978 24.87 115.714 24.606C115.45 24.342 115.006 24.21 114.382 24.21C114.034 24.21 113.656 24.252 113.248 24.336C112.852 24.42 112.432 24.564 111.988 24.768C111.76 24.876 111.556 24.906 111.376 24.858C111.208 24.81 111.076 24.714 110.98 24.57C110.884 24.414 110.836 24.246 110.836 24.066C110.836 23.886 110.884 23.712 110.98 23.544C111.076 23.364 111.238 23.232 111.466 23.148C112.018 22.92 112.546 22.758 113.05 22.662C113.566 22.566 114.034 22.518 114.454 22.518C115.318 22.518 116.026 22.65 116.578 22.914C117.142 23.178 117.562 23.58 117.838 24.12C118.114 24.648 118.252 25.332 118.252 26.172V30.492C118.252 30.864 118.162 31.152 117.982 31.356C117.802 31.548 117.544 31.644 117.208 31.644C116.872 31.644 116.608 31.548 116.416 31.356C116.236 31.152 116.146 30.864 116.146 30.492V29.628H116.29C116.206 30.048 116.038 30.414 115.786 30.726C115.546 31.026 115.24 31.26 114.868 31.428C114.496 31.596 114.07 31.68 113.59 31.68ZM121.742 31.626C121.382 31.626 121.106 31.518 120.914 31.302C120.722 31.086 120.626 30.786 120.626 30.402V23.796C120.626 23.4 120.722 23.1 120.914 22.896C121.106 22.68 121.382 22.572 121.742 22.572C122.102 22.572 122.378 22.68 122.57 22.896C122.774 23.1 122.876 23.4 122.876 23.796V30.402C122.876 30.786 122.78 31.086 122.588 31.302C122.396 31.518 122.114 31.626 121.742 31.626ZM121.742 20.898C121.322 20.898 120.992 20.796 120.752 20.592C120.524 20.376 120.41 20.082 120.41 19.71C120.41 19.326 120.524 19.032 120.752 18.828C120.992 18.624 121.322 18.522 121.742 18.522C122.174 18.522 122.504 18.624 122.732 18.828C122.96 19.032 123.074 19.326 123.074 19.71C123.074 20.082 122.96 20.376 122.732 20.592C122.504 20.796 122.174 20.898 121.742 20.898ZM129.335 31.68C128.555 31.68 127.901 31.548 127.373 31.284C126.857 31.02 126.473 30.636 126.221 30.132C125.969 29.616 125.843 28.98 125.843 28.224V24.39H124.907C124.619 24.39 124.397 24.318 124.241 24.174C124.085 24.018 124.007 23.808 124.007 23.544C124.007 23.268 124.085 23.058 124.241 22.914C124.397 22.77 124.619 22.698 124.907 22.698H125.843V21.06C125.843 20.688 125.939 20.406 126.131 20.214C126.335 20.022 126.617 19.926 126.977 19.926C127.337 19.926 127.613 20.022 127.805 20.214C127.997 20.406 128.093 20.688 128.093 21.06V22.698H130.001C130.289 22.698 130.511 22.77 130.667 22.914C130.823 23.058 130.901 23.268 130.901 23.544C130.901 23.808 130.823 24.018 130.667 24.174C130.511 24.318 130.289 24.39 130.001 24.39H128.093V28.098C128.093 28.674 128.219 29.106 128.471 29.394C128.723 29.682 129.131 29.826 129.695 29.826C129.899 29.826 130.079 29.808 130.235 29.772C130.391 29.736 130.529 29.712 130.649 29.7C130.793 29.688 130.913 29.736 131.009 29.844C131.105 29.94 131.153 30.144 131.153 30.456C131.153 30.696 131.111 30.912 131.027 31.104C130.955 31.284 130.817 31.41 130.613 31.482C130.457 31.53 130.253 31.572 130.001 31.608C129.749 31.656 129.527 31.68 129.335 31.68ZM135.536 31.68C134.54 31.68 133.79 31.398 133.286 30.834C132.782 30.258 132.53 29.418 132.53 28.314V19.8C132.53 19.428 132.626 19.146 132.818 18.954C133.01 18.762 133.286 18.666 133.646 18.666C134.006 18.666 134.282 18.762 134.474 18.954C134.678 19.146 134.78 19.428 134.78 19.8V28.206C134.78 28.758 134.894 29.166 135.122 29.43C135.362 29.694 135.698 29.826 136.13 29.826C136.226 29.826 136.316 29.826 136.4 29.826C136.484 29.814 136.568 29.802 136.652 29.79C136.82 29.766 136.934 29.814 136.994 29.934C137.054 30.042 137.084 30.27 137.084 30.618C137.084 30.918 137.024 31.152 136.904 31.32C136.784 31.488 136.586 31.59 136.31 31.626C136.19 31.638 136.064 31.65 135.932 31.662C135.8 31.674 135.668 31.68 135.536 31.68ZM139.484 31.626C139.124 31.626 138.848 31.518 138.656 31.302C138.464 31.086 138.368 30.786 138.368 30.402V23.796C138.368 23.4 138.464 23.1 138.656 22.896C138.848 22.68 139.124 22.572 139.484 22.572C139.844 22.572 140.12 22.68 140.312 22.896C140.516 23.1 140.618 23.4 140.618 23.796V30.402C140.618 30.786 140.522 31.086 140.33 31.302C140.138 31.518 139.856 31.626 139.484 31.626ZM139.484 20.898C139.064 20.898 138.734 20.796 138.494 20.592C138.266 20.376 138.152 20.082 138.152 19.71C138.152 19.326 138.266 19.032 138.494 18.828C138.734 18.624 139.064 18.522 139.484 18.522C139.916 18.522 140.246 18.624 140.474 18.828C140.702 19.032 140.816 19.326 140.816 19.71C140.816 20.082 140.702 20.376 140.474 20.592C140.246 20.796 139.916 20.898 139.484 20.898ZM146.268 31.68C145.752 31.68 145.206 31.626 144.63 31.518C144.054 31.41 143.538 31.224 143.082 30.96C142.89 30.84 142.752 30.702 142.668 30.546C142.596 30.378 142.566 30.216 142.578 30.06C142.602 29.892 142.662 29.748 142.758 29.628C142.866 29.508 142.998 29.43 143.154 29.394C143.322 29.358 143.502 29.388 143.694 29.484C144.174 29.712 144.624 29.874 145.044 29.97C145.464 30.054 145.878 30.096 146.286 30.096C146.862 30.096 147.288 30 147.564 29.808C147.852 29.604 147.996 29.34 147.996 29.016C147.996 28.74 147.9 28.53 147.708 28.386C147.528 28.23 147.252 28.116 146.88 28.044L145.08 27.702C144.336 27.558 143.766 27.288 143.37 26.892C142.986 26.484 142.794 25.962 142.794 25.326C142.794 24.75 142.95 24.252 143.262 23.832C143.586 23.412 144.03 23.088 144.594 22.86C145.158 22.632 145.806 22.518 146.538 22.518C147.066 22.518 147.558 22.578 148.014 22.698C148.482 22.806 148.932 22.98 149.364 23.22C149.544 23.316 149.664 23.442 149.724 23.598C149.796 23.754 149.814 23.916 149.778 24.084C149.742 24.24 149.67 24.384 149.562 24.516C149.454 24.636 149.316 24.714 149.148 24.75C148.992 24.774 148.812 24.738 148.608 24.642C148.236 24.45 147.876 24.312 147.528 24.228C147.192 24.144 146.868 24.102 146.556 24.102C145.968 24.102 145.53 24.204 145.242 24.408C144.966 24.612 144.828 24.882 144.828 25.218C144.828 25.47 144.912 25.68 145.08 25.848C145.248 26.016 145.506 26.13 145.854 26.19L147.654 26.532C148.434 26.676 149.022 26.94 149.418 27.324C149.826 27.708 150.03 28.224 150.03 28.872C150.03 29.748 149.688 30.438 149.004 30.942C148.32 31.434 147.408 31.68 146.268 31.68ZM155.869 31.68C155.089 31.68 154.435 31.548 153.907 31.284C153.391 31.02 153.007 30.636 152.755 30.132C152.503 29.616 152.377 28.98 152.377 28.224V24.39H151.441C151.153 24.39 150.931 24.318 150.775 24.174C150.619 24.018 150.541 23.808 150.541 23.544C150.541 23.268 150.619 23.058 150.775 22.914C150.931 22.77 151.153 22.698 151.441 22.698H152.377V21.06C152.377 20.688 152.473 20.406 152.665 20.214C152.869 20.022 153.151 19.926 153.511 19.926C153.871 19.926 154.147 20.022 154.339 20.214C154.531 20.406 154.627 20.688 154.627 21.06V22.698H156.535C156.823 22.698 157.045 22.77 157.201 22.914C157.357 23.058 157.435 23.268 157.435 23.544C157.435 23.808 157.357 24.018 157.201 24.174C157.045 24.318 156.823 24.39 156.535 24.39H154.627V28.098C154.627 28.674 154.753 29.106 155.005 29.394C155.257 29.682 155.665 29.826 156.229 29.826C156.433 29.826 156.613 29.808 156.769 29.772C156.925 29.736 157.063 29.712 157.183 29.7C157.327 29.688 157.447 29.736 157.543 29.844C157.639 29.94 157.687 30.144 157.687 30.456C157.687 30.696 157.645 30.912 157.561 31.104C157.489 31.284 157.351 31.41 157.147 31.482C156.991 31.53 156.787 31.572 156.535 31.608C156.283 31.656 156.061 31.68 155.869 31.68Z" fill="white"/>
<defs>
<linearGradient id="paint0_linear_41_17464" x1="0" y1="26" x2="174" y2="26" gradientUnits="userSpaceOnUse">
<stop stop-color="#252525"/>
<stop offset="0.768373" stop-color="#636262"/>
<stop offset="1" stop-color="#292929"/>
</linearGradient>
</defs>
</svg>
