<svg width="40" height="40" viewBox="0 0 40 40" fill="none" xmlns="http://www.w3.org/2000/svg">
<rect width="40" height="40" rx="20" fill="white"/>
<path d="M24.3138 17.2196C25.5999 18.1423 27.1754 18.6851 28.8771 18.6851V15.3989C28.5551 15.399 28.2339 15.3653 27.9188 15.2983V17.885C26.2172 17.885 24.6419 17.3422 23.3554 16.4196V23.1258C23.3554 26.4806 20.6455 29.2 17.3028 29.2C16.0556 29.2 14.8963 28.8216 13.9333 28.1726C15.0324 29.3004 16.5652 30.0001 18.261 30.0001C21.6038 30.0001 24.3139 27.2807 24.3139 23.9257V17.2196H24.3138ZM25.496 13.9042C24.8387 13.1836 24.4071 12.2523 24.3138 11.2227V10.8H23.4056C23.6342 12.1086 24.4139 13.2266 25.496 13.9042ZM16.0476 25.5982C15.6804 25.115 15.4819 24.5239 15.4828 23.9161C15.4828 22.3818 16.7223 21.1377 18.2515 21.1377C18.5365 21.1376 18.8198 21.1814 19.0914 21.2679V17.9082C18.774 17.8646 18.4537 17.846 18.1335 17.8528V20.4678C17.8617 20.3814 17.5782 20.3374 17.2932 20.3377C15.764 20.3377 14.5245 21.5816 14.5245 23.1162C14.5245 24.2012 15.1441 25.1406 16.0476 25.5982Z" fill="#0C1523" fill-opacity="0.7"/>
<path d="M23.3554 16.4195C24.6419 17.3421 26.2172 17.885 27.9188 17.885V15.2982C26.969 15.0952 26.1281 14.5971 25.4959 13.9042C24.4138 13.2266 23.6342 12.1086 23.4056 10.8H21.0201V23.9256C21.0147 25.4558 19.7773 26.6948 18.2513 26.6948C17.3521 26.6948 16.5533 26.2646 16.0474 25.5983C15.1439 25.1406 14.5244 24.2012 14.5244 23.1163C14.5244 21.5818 15.7638 20.3378 17.293 20.3378C17.586 20.3378 17.8684 20.3835 18.1333 20.4679V17.8529C14.8493 17.921 12.2083 20.6138 12.2083 23.9257C12.2083 25.5789 12.8659 27.0776 13.9334 28.1727C14.8964 28.8216 16.0556 29.2001 17.3029 29.2001C20.6456 29.2001 23.3555 26.4805 23.3555 23.1258V16.4195H23.3554Z" fill="#0C1523"/>
<path d="M27.9188 15.2982V14.5987C27.0623 14.6 26.2226 14.3593 25.496 13.9041C26.1392 14.6109 26.9863 15.0982 27.9188 15.2982ZM23.4056 10.8C23.3838 10.6749 23.367 10.549 23.3554 10.4227V10H20.0617V23.1257C20.0564 24.6556 18.8191 25.8946 17.293 25.8946C16.845 25.8946 16.422 25.7879 16.0474 25.5983C16.5533 26.2645 17.3522 26.6946 18.2514 26.6946C19.7772 26.6946 21.0148 25.4558 21.0201 23.9256V10.8H23.4056ZM18.1334 17.8528V17.1082C17.8582 17.0705 17.5808 17.0515 17.3029 17.0517C13.9599 17.0516 11.25 19.7712 11.25 23.1257C11.25 25.2288 12.3151 27.0822 13.9335 28.1725C12.866 27.0775 12.2083 25.5787 12.2083 23.9255C12.2083 20.6138 14.8494 17.9209 18.1334 17.8528Z" fill="#0C1523" fill-opacity="0.8"/>
</svg>
