<svg width="38" height="39" viewBox="0 0 38 39" fill="none" xmlns="http://www.w3.org/2000/svg">
<path d="M30.0566 13.4353C30.708 13.4354 31.3189 13.7529 31.6934 14.2859L37.5615 22.6384C38.0483 23.3317 38.0456 24.2567 37.5547 24.947L33.8955 30.0925L28.6592 37.5691C28.2849 38.1033 27.6738 38.4216 27.0215 38.4216H8.99512C7.3963 38.4216 6.44398 36.6382 7.33301 35.3093L10.2295 30.9802C10.6007 30.4256 11.2242 30.0925 11.8916 30.0925H19.9424C20.5925 30.0925 21.2024 29.7762 21.5771 29.2449L24.6494 24.8884C25.1346 24.2004 25.137 23.2821 24.6553 22.5916L20.4609 16.5798C19.5359 15.254 20.484 13.4354 22.1006 13.4353H30.0566ZM29.0049 0.421631C30.6036 0.421832 31.556 2.20512 30.667 3.53394L27.7705 7.86304C27.3993 8.41774 26.7759 8.75073 26.1084 8.75073H18.0586C17.4085 8.75073 16.7985 9.06716 16.4238 9.59839L13.3506 13.9548C12.8653 14.6429 12.863 15.5612 13.3447 16.2517L17.54 22.2634C18.4652 23.5892 17.5161 25.408 15.8994 25.408H7.94336C7.29195 25.408 6.68112 25.0904 6.30664 24.5574L0.438477 16.2058C-0.0486665 15.5125 -0.04584 14.5868 0.445312 13.8962L4.10449 8.75073L9.33984 1.27417C9.71413 0.739719 10.326 0.421631 10.9785 0.421631H29.0049Z" fill="#0C1523"/>
</svg>
